<?xml version="1.0" encoding="UTF-8"?>
<svg version="1.1" xmlns="http://www.w3.org/2000/svg" width="1024" height="1024" viewBox="0 0 1024 1024">
<path d="M0 0 C337.92 0 675.84 0 1024 0 C1024 337.92 1024 675.84 1024 1024 C686.08 1024 348.16 1024 0 1024 C0 686.08 0 348.16 0 0 Z " fill="#ACD6B3" transform="translate(0,0)"/>
<path d="M0 0 C3.03125 0.59375 3.03125 0.59375 4.9453125 2.65625 C5.50992188 3.625625 6.07453125 4.595 6.65625 5.59375 C7.33558594 6.68945312 8.01492188 7.78515625 8.71484375 8.9140625 C9.08335449 9.50993164 9.45186523 10.10580078 9.83154297 10.71972656 C16.94880955 21.83737783 25.57938448 31.66009183 34.68310547 41.16455078 C36.32163815 42.9015972 37.86962737 44.70380876 39.40625 46.53125 C46.96296224 55.28112734 55.41498613 63.58880123 64.25390625 71.03515625 C67.10760106 73.53762708 69.72698445 76.26783455 72.3671875 78.9921875 C73.95547733 80.68003724 73.95547733 80.68003724 76.03125 81.59375 C76.03125 82.25375 76.03125 82.91375 76.03125 83.59375 C76.61412277 83.851633 77.19699554 84.10951599 77.79753113 84.37521362 C80.22049323 85.6969858 81.82380414 87.13896143 83.77075195 89.09033203 C84.48862381 89.80512726 85.20649567 90.51992249 85.94612122 91.25637817 C87.09620918 92.41724442 87.09620918 92.41724442 88.26953125 93.6015625 C89.06852341 94.40101288 89.86751556 95.20046326 90.6907196 96.0241394 C92.38171528 97.71815595 94.07028004 99.41460203 95.7565918 101.11328125 C98.31839326 103.6932138 100.88797977 106.26517961 103.45898438 108.8359375 C105.10463683 110.48651054 106.74983364 112.13753802 108.39453125 113.7890625 C109.15518387 114.55082794 109.91583649 115.31259338 110.69953918 116.09744263 C114.81633342 120.25034784 118.77716652 124.48680005 122.58924866 128.92173767 C124.39039051 131.01017635 126.2741449 133.01579737 128.15625 135.03125 C134.59160888 142.1755891 140.2980339 149.88424317 146.03125 157.59375 C146.58925293 158.34285645 147.14725586 159.09196289 147.72216797 159.86376953 C154.88029621 169.51403309 161.6445989 179.31613529 167.83837891 189.61376953 C169.03037018 191.59228964 170.23926558 193.55977 171.44921875 195.52734375 C187.82552214 222.43547339 201.20317997 252.30937732 210.03125 282.59375 C210.23621094 283.28984375 210.44117188 283.9859375 210.65234375 284.703125 C212.27194082 290.29626769 213.69121438 295.92762289 215.03125 301.59375 C215.27907227 302.63901855 215.52689453 303.68428711 215.78222656 304.76123047 C226.42911418 350.57451082 229.24337115 401.68809169 214.21875 447.03125 C213.95795654 447.83143555 213.69716309 448.63162109 213.4284668 449.45605469 C212.64285955 451.84006416 211.84041771 454.21764684 211.03125 456.59375 C210.80598633 457.26486816 210.58072266 457.93598633 210.34863281 458.62744141 C200.02883596 489.00836802 183.15870778 516.87238073 161.21875 540.25390625 C159.2899851 542.31699584 157.46827534 544.42890242 155.65625 546.59375 C143.08127888 560.98608292 127.07272712 572.40709994 111.03125 582.59375 C110.42168457 582.98304688 109.81211914 583.37234375 109.18408203 583.7734375 C78.04895131 603.50918641 40.99765282 617.16818393 4.03125 618.59375 C4.05445313 619.37234375 4.07765625 620.1509375 4.1015625 620.953125 C4.68201056 656.94090451 -2.98055668 696.39990218 -16.96875 729.59375 C-17.37996094 730.64820313 -17.79117188 731.70265625 -18.21484375 732.7890625 C-18.83552734 734.30113281 -18.83552734 734.30113281 -19.46875 735.84375 C-19.8296875 736.73578125 -20.190625 737.6278125 -20.5625 738.546875 C-21.96875 740.59375 -21.96875 740.59375 -24.5078125 741.453125 C-26.96875 741.59375 -26.96875 741.59375 -28.84375 740.59375 C-30.61655575 737.44209533 -29.6600741 735.08546309 -28.96875 731.59375 C-28.03803886 728.80794316 -26.9131609 726.11547316 -25.78125 723.40625 C-13.89355049 693.69770536 -7.41094043 661.39299164 -6.1796875 629.44140625 C-5.97734785 625.75058111 -5.54854182 622.23883467 -4.96875 618.59375 C-5.51587646 618.55411133 -6.06300293 618.51447266 -6.62670898 618.47363281 C-36.84296778 616.18935054 -64.827867 607.00172631 -91.96875 593.59375 C-93.00386719 593.08457031 -94.03898438 592.57539062 -95.10546875 592.05078125 C-115.58517678 581.35617108 -133.42842717 567.59279894 -149.96875 551.59375 C-150.61166992 550.97806152 -151.25458984 550.36237305 -151.91699219 549.72802734 C-160.75096896 541.24572866 -168.78139046 532.51673654 -175.96875 522.59375 C-176.6486499 521.65644043 -176.6486499 521.65644043 -177.34228516 520.70019531 C-190.55630828 502.31426178 -201.78352728 482.7320912 -209.06811523 461.20605469 C-209.9546712 458.63458576 -210.91594052 456.10077954 -211.8828125 453.55859375 C-214.0730896 447.53923126 -215.62145423 441.46159186 -217.03125 435.21875 C-217.28801514 434.09186768 -217.54478027 432.96498535 -217.80932617 431.80395508 C-220.10385856 421.46507922 -221.76842268 411.1121561 -222.96875 400.59375 C-223.10023438 399.50191406 -223.23171875 398.41007812 -223.3671875 397.28515625 C-224.98533551 380.81940686 -224.61102182 363.95812769 -222.23779297 347.59765625 C-221.9638003 345.55688329 -221.75537689 343.51905744 -221.56640625 341.46875 C-219.26320357 316.77785207 -213.20284336 293.19360425 -205.46875 269.71875 C-205.10104492 268.60121338 -204.73333984 267.48367676 -204.35449219 266.33227539 C-201.87458175 258.93804199 -199.07571878 251.74616319 -195.96875 244.59375 C-195.57252441 243.67964355 -195.17629883 242.76553711 -194.76806641 241.82373047 C-185.77633689 221.33749423 -175.85341286 200.87566683 -163.18505859 182.37841797 C-161.76678255 180.29740675 -160.37842982 178.19755606 -158.98828125 176.09765625 C-152.29250931 166.06160371 -145.16383946 156.56839532 -137.41308594 147.32617188 C-135.35627209 144.85910781 -133.35458045 142.34834309 -131.34375 139.84375 C-127.38901512 135.01738867 -123.22790471 130.40916088 -118.98095703 125.84130859 C-117.07886235 123.79501457 -115.18949853 121.73923926 -113.30688477 119.67480469 C-106.10877067 111.78153804 -98.67875251 104.14788039 -91.11279297 96.60742188 C-89.20292006 94.70296495 -87.29852851 92.79314181 -85.39453125 90.8828125 C-78.60918178 84.0936627 -71.8202641 77.42983092 -64.28125 71.46875 C-62.23536079 69.80992091 -60.40543129 68.05881861 -58.55444336 66.19042969 C-56.64319999 64.26594444 -54.7159986 62.35799032 -52.7890625 60.44921875 C-51.22389685 58.89329101 -49.6587943 57.3372998 -48.09375 55.78125 C-47.31644531 55.01232422 -46.53914062 54.24339844 -45.73828125 53.45117188 C-41.48782769 49.21857736 -37.40688 44.90983392 -33.49707031 40.3605957 C-31.49129245 38.04177551 -29.38382439 35.82475389 -27.28125 33.59375 C-18.626786 24.09494805 -10.76211935 13.7672231 -4.6640625 2.4375 C-2.96875 0.59375 -2.96875 0.59375 0 0 Z " fill="#F8FDF8" transform="translate(511.96875,141.40625)"/>
<path d="M0 0 C1.7894189 3.13850718 2.39826344 5.80747109 2.82421875 9.3828125 C3.03050903 10.990354 3.03050903 10.990354 3.2409668 12.63037109 C3.38832275 13.78359863 3.53567871 14.93682617 3.6875 16.125 C10.99553752 68.45997835 37.3538002 110.94435039 74.42871094 147.63452148 C76.26827459 149.45559087 78.09947141 151.28477504 79.9296875 153.11523438 C85.26504034 158.43416576 90.60856264 163.67559997 96.34521484 168.56567383 C98.92181333 170.79900462 101.29211228 173.19814003 103.6875 175.625 C104.57824219 176.52476562 105.46898437 177.42453125 106.38671875 178.3515625 C107.68029297 179.66253906 107.68029297 179.66253906 109 181 C111.34556409 183.35982284 113.69310627 185.70847943 116.10546875 188 C130.59851464 201.92202532 142.37519215 219.98754031 149 239 C149.21350098 239.60908203 149.42700195 240.21816406 149.64697266 240.84570312 C152.47794759 249.03797557 154.58095686 256.98479839 155.640625 265.62109375 C155.75166963 267.94952011 155.75166963 267.94952011 157 269 C157.09531163 270.3534059 157.1218872 271.71173984 157.12025452 273.0684967 C157.12231651 274.38316673 157.12231651 274.38316673 157.12442017 275.72439575 C157.12082489 276.69327728 157.11722961 277.66215881 157.11352539 278.66040039 C157.11367142 279.67491776 157.11381744 280.68943512 157.1139679 281.73469543 C157.11326829 285.10570373 157.10547368 288.47665754 157.09765625 291.84765625 C157.09579224 294.17793243 157.09436826 296.508209 157.09336853 298.83848572 C157.08954202 304.98537265 157.0797106 311.13223613 157.06866455 317.27911377 C157.05845329 323.54609866 157.05387152 329.81308732 157.04882812 336.08007812 C157.03808845 348.38672908 157.02101044 360.69336259 157 373 C155.05708204 370.44623703 153.35676813 367.97442208 151.87109375 365.12890625 C146.6498537 355.32048008 141.02874121 346.58937991 134 338 C133.40316406 337.20078125 132.80632812 336.4015625 132.19140625 335.578125 C121.20612622 320.9963279 106.94236768 308.45941198 92.5625 297.3125 C91.78463135 296.70873535 91.0067627 296.1049707 90.20532227 295.48291016 C82.98777912 289.92152953 75.58326724 284.65471464 68.10009766 279.45898438 C32.18894429 254.51071042 32.18894429 254.51071042 22.30078125 245.16015625 C20.3184325 243.29896974 18.29849851 241.51625112 16.2421875 239.73828125 C3.26505818 228.41511456 -8.05000631 216.04403708 -18 202 C-18.43860352 201.3901123 -18.87720703 200.78022461 -19.32910156 200.15185547 C-35.79503321 177.10839702 -51.82412785 150.88374926 -47.4375 121.98828125 C-46.7215182 117.96495171 -45.90399371 113.98444535 -45 110 C-44.85643066 109.35063477 -44.71286133 108.70126953 -44.56494141 108.03222656 C-38.37050572 80.69634929 -28.45334263 54.04684908 -16 29 C-15.07642324 27.09327127 -14.15451017 25.18573568 -13.234375 23.27734375 C-12.36647103 21.49647463 -11.49677831 19.71647575 -10.625 17.9375 C-10.24456543 17.15826172 -9.86413086 16.37902344 -9.47216797 15.57617188 C-6.72250199 10.08882103 -3.50128822 5.03784082 0 0 Z " fill="#ADD6B3" transform="translate(350,340)"/>
<path d="M0 0 C3.8600889 3.55576945 5.96051201 7.99177719 8.4375 12.5625 C8.96174561 13.52905518 9.48599121 14.49561035 10.02612305 15.49145508 C19.40693753 33.0352141 27.69496673 51.12243014 34 70 C34.36222656 71.08104004 34.72445312 72.16208008 35.09765625 73.27587891 C39.57146371 86.71760321 44.01059409 100.14002713 47 114 C47.21994629 114.97984863 47.21994629 114.97984863 47.44433594 115.97949219 C54.0802149 145.84808285 41.40672843 168.54172617 25.68237305 193.42358398 C21.74946097 199.51462275 17.49665562 205.31003155 13 211 C11.85337891 212.4540625 11.85337891 212.4540625 10.68359375 213.9375 C6.87519509 218.68027735 2.98981883 223.17093141 -1.390625 227.390625 C-3.0196632 229.0196632 -4.47402114 230.7217945 -5.9375 232.5 C-9.27222076 236.44579524 -13.05756663 239.67662642 -17 243 C-17.91394531 243.80179688 -18.82789063 244.60359375 -19.76953125 245.4296875 C-28.01140609 252.61906881 -36.73529955 259.00680597 -45.65185547 265.32958984 C-49.53497327 268.09194085 -53.39075445 270.89194946 -57.25 273.6875 C-62.02969144 277.14370338 -66.81728379 280.58790955 -71.62475586 284.00537109 C-106.76982545 308.99763846 -134.47994937 335.88509745 -155 374 C-155.33 374 -155.66 374 -156 374 C-156.09328319 361.04632842 -156.16405798 348.09273868 -156.20724869 335.13879776 C-156.22799336 329.12170675 -156.25606722 323.10484802 -156.30175781 317.08789062 C-156.34568855 311.2652742 -156.36923532 305.44287911 -156.37950897 299.62010956 C-156.38681656 297.41489942 -156.4010822 295.20969938 -156.42292023 293.00458527 C-156.73614963 260.01995807 -147.71941959 229.1408722 -127 203 C-126.05374756 201.78908691 -126.05374756 201.78908691 -125.08837891 200.55371094 C-119.4953258 193.54140561 -113.4524223 187.17327041 -107.0793457 180.87353516 C-105.4305043 179.24308232 -103.78993899 177.6046362 -102.15039062 175.96484375 C-97.17082523 171.00197697 -92.15321135 166.12414364 -86.80786133 161.55175781 C-83.6753225 158.86297769 -80.65377853 156.05442457 -77.625 153.25 C-76.70267578 152.40501953 -76.70267578 152.40501953 -75.76171875 151.54296875 C-75.17261719 150.99769531 -74.58351563 150.45242188 -73.9765625 149.890625 C-73.45143066 149.40625977 -72.92629883 148.92189453 -72.38525391 148.42285156 C-70.76439655 146.84481315 -70.76439655 146.84481315 -69 144 C-68.34 144 -67.68 144 -67 144 C-67 143.34 -67 142.68 -67 142 C-66.34 142 -65.68 142 -65 142 C-64.73316406 141.40316406 -64.46632813 140.80632812 -64.19140625 140.19140625 C-62.97513068 137.95425676 -61.79642741 136.65579933 -59.9375 134.9375 C-31.13156997 106.90688486 -12.52207054 68.42335171 -4.51660156 29.46166992 C-4.02405453 27.11462279 -3.48227465 24.78365749 -2.93359375 22.44921875 C-1.89572333 17.80932747 -1.34958893 13.16393895 -0.875 8.4375 C-0.74544922 7.21063477 -0.74544922 7.21063477 -0.61328125 5.95898438 C-0.40424459 3.97313606 -0.20144923 1.98663234 0 0 Z " fill="#ADD6B2" transform="translate(673,339)"/>
<path d="M0 0 C4.52134218 3.71754802 8.77415761 7.64047364 12.9375 11.75 C13.43419189 12.23380127 13.93088379 12.71760254 14.44262695 13.21606445 C15.66847329 14.43848364 16.83934827 15.71551743 18 17 C18 17.66 18 18.32 18 19 C19.485 19.495 19.485 19.495 21 20 C22.4375 21.390625 22.4375 21.390625 24 23.25 C24.61617187 23.97832031 25.23234375 24.70664062 25.8671875 25.45703125 C26.57101562 26.29621094 27.27484375 27.13539063 28 28 C28.80695313 28.93199219 29.61390625 29.86398437 30.4453125 30.82421875 C37.43877054 38.92026655 44.06121139 47.28137949 50.42773438 55.87890625 C51.46069747 57.27244403 52.50087179 58.66067073 53.54882812 60.04296875 C54.99895374 61.96764656 56.40991754 63.91550605 57.8125 65.875 C58.23926025 66.4323584 58.66602051 66.9897168 59.10571289 67.56396484 C64.59952361 75.48602377 61.98038582 86.0685966 60.75 95.0625 C60.54648926 96.56393555 60.54648926 96.56393555 60.33886719 98.09570312 C55.01617504 135.7991071 41.42709424 171.49514759 17 201 C16.57928223 201.51546387 16.15856445 202.03092773 15.72509766 202.56201172 C5.21479658 215.42636745 -6.04984501 228.29929922 -18.625 239.1875 C-46.10261162 263.00839525 -71.91534817 288.33715042 -85 323 C-85.33 323 -85.66 323 -86 323 C-86.07044057 306.11750334 -86.12315828 289.23505328 -86.15543652 272.35244274 C-86.17082989 264.51152284 -86.19177311 256.67069484 -86.22631836 248.82983398 C-86.25645375 241.98656578 -86.27562952 235.14336421 -86.28226548 228.30003148 C-86.28613742 224.68484788 -86.2950744 221.06985474 -86.31719017 217.45473289 C-86.53908297 179.70912143 -86.53908297 179.70912143 -80.0625 162.125 C-79.77020508 161.31458252 -79.47791016 160.50416504 -79.17675781 159.66918945 C-73.09590998 143.69088913 -63.45081333 129.41563825 -53 116 C-52.15813518 114.90680331 -51.31697788 113.81306136 -50.4765625 112.71875 C-49.23979184 111.1109968 -48.00269588 109.50349878 -46.76464844 107.89672852 C-45.50835125 106.26556845 -44.25410836 104.63284331 -43 103 C-42.56719727 102.43909668 -42.13439453 101.87819336 -41.68847656 101.30029297 C-21.57538258 75.0974419 -7.30309207 45.78954108 -2 13 C-1.79632812 11.74445313 -1.59265625 10.48890625 -1.3828125 9.1953125 C-0.90200809 6.13265429 -0.43987304 3.06876135 0 0 Z " fill="#ADD6B2" transform="translate(603,252)"/>
<path d="M0 0 C2.16079346 3.61358225 2.68112088 7.34631478 3.3125 11.4375 C9.17171495 46.05124479 23.02364823 75.91313589 44.73388672 103.39550781 C48.54286312 108.22246364 52.2876145 113.09849102 56 118 C56.4125 118.54205078 56.825 119.08410156 57.25 119.64257812 C75.82416573 144.22432558 87.20554331 171.02324992 87.11352539 202.1171875 C87.11367142 203.4155806 87.11381744 204.71397369 87.1139679 206.05171204 C87.11425333 209.5903957 87.10839775 213.12904506 87.10139394 216.66772079 C87.09511803 220.37393772 87.09455326 224.08015554 87.09336853 227.78637695 C87.09026767 234.79493799 87.08207113 241.80348333 87.07201904 248.81203747 C87.06081915 256.79514026 87.0553377 264.77824383 87.05032361 272.76135254 C87.03988742 289.1742442 87.0223122 305.58712009 87 322 C85.00618025 320.00618025 84.30139473 318.71315049 83.1875 316.17578125 C74.84506934 297.61686766 64.19139028 281.6346533 49.47265625 267.47265625 C48 266 48 266 45.5625 263 C42.92601022 259.91337782 40.11991121 257.41022398 37.0390625 254.78515625 C35.10516968 253.09207384 33.29831504 251.33526672 31.5 249.5 C29.10946833 247.06610268 26.64953738 244.78644441 24.0625 242.5625 C20.52725416 239.51769289 17.25732808 236.27930081 13.98828125 232.953125 C12.12013753 231.11801329 10.19266513 229.43254182 8.1875 227.75 C-14.34187904 208.31288867 -31.3937669 181.68150483 -44 155 C-44.46148437 154.04222656 -44.92296875 153.08445312 -45.3984375 152.09765625 C-51.33030884 138.93041317 -54.45416533 124.35237079 -57.3125 110.25 C-57.55141968 109.0734082 -57.55141968 109.0734082 -57.79516602 107.87304688 C-58.87666125 102.27191455 -59.53619716 96.68395682 -60 91 C-60.06759521 90.21560547 -60.13519043 89.43121094 -60.20483398 88.62304688 C-61.01294779 77.78774822 -60.71098658 70.23464949 -53.36132812 61.62841797 C-51.79988578 59.76062377 -50.34596196 57.83046158 -48.890625 55.87890625 C-39.97547813 43.94400624 -30.62566754 32.48772172 -20.47216797 21.58544922 C-18.93416374 19.92909774 -17.40558059 18.26445326 -15.87890625 16.59765625 C-10.69670243 10.94544047 -5.48615145 5.36146619 0 0 Z " fill="#ADD6B2" transform="translate(420,252)"/>
<path d="M0 0 C2.59370789 1.29685394 2.80183393 2.39309912 3.9609375 5.0234375 C4.34378906 5.870271 4.72664063 6.71710449 5.12109375 7.58959961 C5.53488281 8.50878174 5.94867188 9.42796387 6.375 10.375 C11.38984071 21.19703364 17.32574066 31.12987113 24 41 C24.43844238 41.65081543 24.87688477 42.30163086 25.32861328 42.97216797 C39.91264296 64.43577456 58.10515044 83.60915959 79 99 C81.06357969 100.62362869 83.12606862 102.24864459 85.1875 103.875 C91.22080107 108.55382919 97.51908158 112.82419287 103.8371582 117.10620117 C115.89226814 125.29105605 127.51203501 134.04149519 139 143 C139.84949219 143.65355469 140.69898438 144.30710937 141.57421875 144.98046875 C147.12675241 149.3169886 152.3203461 153.96332828 157.44726562 158.78857422 C159.80798039 161.00632644 162.15711383 163.12541743 164.69140625 165.1484375 C168.29017163 168.03475694 171.06337837 171.45714398 174 175 C175.2065625 176.43279297 175.2065625 176.43279297 176.4375 177.89453125 C192.22405364 197.03364497 210.49835854 224.02845199 209 250 C171.36438588 247.50164282 134.00365684 233.29376825 103 212 C102.41009277 211.60248535 101.82018555 211.2049707 101.21240234 210.79541016 C87.80124535 201.72691353 76.04329038 191.20518638 64.5625 179.8125 C63.72187012 178.98121582 62.88124023 178.14993164 62.01513672 177.29345703 C56.89871399 172.15050848 52.29994422 166.84048891 48 161 C47.55487061 160.40356689 47.10974121 159.80713379 46.65112305 159.19262695 C32.37112748 139.89510785 21.37663271 119.46110873 13 97 C12.30777344 95.19208984 12.30777344 95.19208984 11.6015625 93.34765625 C0.60960563 62.78721565 -0.3644239 32.01043487 0 0 Z " fill="#ADD6B2" transform="translate(298,501)"/>
<path d="M0 0 C0.33 0 0.66 0 1 0 C1.44409104 25.11733358 1.62511058 50.54885035 -5 75 C-5.27553711 76.04969971 -5.27553711 76.04969971 -5.55664062 77.12060547 C-13.22580868 105.95302538 -26.05185449 133.18064675 -44 157 C-44.63550781 157.86753906 -45.27101563 158.73507812 -45.92578125 159.62890625 C-50.0241267 165.09662727 -54.64565181 170.07923036 -59.296875 175.07421875 C-61.64441179 177.61512201 -63.92407088 180.19708091 -66.1875 182.8125 C-69.85341783 186.93390261 -73.75402883 190.48724207 -78 194 C-79.13160104 194.96734192 -80.26310239 195.93480046 -81.39453125 196.90234375 C-114.83180461 225.14996731 -163.26327406 250 -208 250 C-206.21431803 212.0542581 -179.40830276 179.79033417 -153 155 C-149.47167483 151.82178066 -145.76761939 148.88887434 -142 146 C-141.03320312 145.23945312 -140.06640625 144.47890625 -139.0703125 143.6953125 C-127.05099223 134.31364855 -114.59639398 125.51637938 -102.125 116.75 C-95.31588713 111.95920584 -88.60369384 107.07240251 -82 102 C-81.43684082 101.5683252 -80.87368164 101.13665039 -80.29345703 100.69189453 C-70.67958915 93.3024632 -61.57715687 85.58990153 -53 77 C-51.97042352 76.01387477 -50.93907383 75.02959858 -49.90625 74.046875 C-28.61123567 53.57101993 -11.4028333 27.24677008 0 0 Z " fill="#ADD6B2" transform="translate(725,501)"/>
<path d="M0 0 C0.66 0 1.32 0 2 0 C2 79.86 2 159.72 2 242 C1.34 242 0.68 242 0 242 C-0.23332031 241.34257812 -0.46664062 240.68515625 -0.70703125 240.0078125 C-6.24938556 225.55460587 -14.99095388 212.74288265 -24.62841797 200.72070312 C-41.98833129 178.94201515 -56.88238631 157.06365426 -67 131 C-67.41121094 129.94296875 -67.82242187 128.8859375 -68.24609375 127.796875 C-72.3550711 116.34929607 -74.62934643 104.06422104 -76 92 C-76.15984375 90.93136719 -76.3196875 89.86273438 -76.484375 88.76171875 C-76.93226251 83.57807945 -76.92374072 80.29091104 -73.828125 75.96484375 C-71.09321206 73.07102596 -68.06631662 70.53184998 -65 68 C-47.74471912 53.14485644 -29.98603877 37.43349171 -15.94921875 19.453125 C-13.82218146 16.77621234 -11.56145266 14.26884237 -9.25 11.75 C-6.63946593 8.89800292 -4.24687433 6.06508334 -2.0625 2.875 C-1.381875 1.92625 -0.70125 0.9775 0 0 Z " fill="#AED6B3" transform="translate(506,163)"/>
<path d="M0 0 C3.62915639 3.62915639 6.9850791 7.25608895 10.25 11.1875 C14.31935801 16.0393742 18.45160574 20.8157577 22.71875 25.49609375 C24.29483111 27.22600469 25.85649664 28.96912038 27.40625 30.72265625 C34.75756479 38.94860036 42.69753559 46.45270073 50.78613281 53.94775391 C52.98415352 55.98531038 55.17687405 58.02838117 57.3671875 60.07421875 C58.0681958 60.72865967 58.7692041 61.38310059 59.49145508 62.05737305 C60.85789387 63.33908393 62.2198259 64.62561875 63.5769043 65.91723633 C66.24778191 68.4574971 68.8790931 70.90477093 71.77734375 73.1875 C75.23506783 76.00715549 76.77658511 77.74918056 77.57421875 82.21484375 C77.86977908 91.92756758 76.11754486 101.55379787 74 111 C73.8443457 111.69931641 73.68869141 112.39863281 73.52832031 113.11914062 C69.04824455 132.48809091 61.20198584 151.55079315 50 168 C49.60312988 168.58394531 49.20625977 169.16789063 48.79736328 169.76953125 C44.10331276 176.60672026 39.10970072 183.20134306 34.03369141 189.75878906 C21.21300773 206.34793171 9.315425 222.66256069 1 242 C0.67 242 0.34 242 0 242 C0 162.14 0 82.28 0 0 Z " fill="#ADD6B3" transform="translate(517,163)"/>
<path d="M0 0 C0.66 0 1.32 0 2 0 C2.51046875 1.17755859 2.51046875 1.17755859 3.03125 2.37890625 C8.05320028 13.26425062 13.78827324 18.82155554 25 23 C25 23.66 25 24.32 25 25 C24.21496094 25.3403125 23.42992187 25.680625 22.62109375 26.03125 C11.73574938 31.05320028 6.17844446 36.78827324 2 48 C1.34 48 0.68 48 0 48 C-0.3403125 47.21496094 -0.680625 46.42992187 -1.03125 45.62109375 C-6.05320028 34.73574938 -11.78827324 29.17844446 -23 25 C-23 24.34 -23 23.68 -23 23 C-22.21496094 22.6596875 -21.42992187 22.319375 -20.62109375 21.96875 C-9.73574938 16.94679972 -4.17844446 11.21172676 0 0 Z " fill="#D4E9D7" transform="translate(967,944)"/>
<path d="M0 0 C0 3 0 3 -2.18383789 5.50854492 C-3.18931734 6.5067571 -4.20287826 7.49686857 -5.22265625 8.48046875 C-5.76095566 9.01215164 -6.29925507 9.54383453 -6.85386658 10.09162903 C-8.58314713 11.79747281 -10.32219535 13.49291053 -12.0625 15.1875 C-14.32802753 17.40630243 -16.58923046 19.62943914 -18.84765625 21.85546875 C-19.39136368 22.39054047 -19.93507111 22.92561218 -20.49525452 23.47689819 C-24.05640526 27.00321897 -27.45107888 30.62440435 -30.68554688 34.45629883 C-32.35228079 36.41372055 -34.14613579 38.22029036 -36 40 C-36.66 39.67 -37.32 39.34 -38 39 C-37.57589844 38.5875 -37.15179688 38.175 -36.71484375 37.75 C-36.12832031 37.1725 -35.54179687 36.595 -34.9375 36 C-34.36902344 35.443125 -33.80054688 34.88625 -33.21484375 34.3125 C-31.4100372 32.42811645 -29.72304548 30.51436 -28.03125 28.53125 C-22.84330147 22.56341378 -17.1725732 17.06622511 -11.5625 11.5 C-10.4379167 10.38044368 -9.31356595 9.26065371 -8.18945312 8.140625 C-5.46230656 5.42438466 -2.73204093 2.71131708 0 0 Z " fill="#F0FDF0" transform="translate(430,229)"/>
<path d="M0 0 C0.66 0.33 1.32 0.66 2 1 C0.37660195 2.70884005 -1.29319053 4.37446717 -3 6 C-3.66 6 -4.32 6 -5 6 C-5.20625 6.5775 -5.4125 7.155 -5.625 7.75 C-7 10 -7 10 -9.5 11.5625 C-14.41654598 14.72979067 -18.30385279 19.09444304 -22.375 23.25 C-23.20644531 24.09046875 -24.03789063 24.9309375 -24.89453125 25.796875 C-26.93431547 27.86010502 -28.96926286 29.92787123 -31 32 C-31 29 -31 29 -29.43041992 27.05810547 C-28.34144409 25.97360107 -28.34144409 25.97360107 -27.23046875 24.8671875 C-26.42851074 24.06458496 -25.62655273 23.26198242 -24.80029297 22.43505859 C-23.93807129 21.59023926 -23.07584961 20.74541992 -22.1875 19.875 C-21.3227002 19.0185791 -20.45790039 18.1621582 -19.56689453 17.27978516 C-13.64311407 11.46683314 -7.60574196 6.0316077 -1 1 C-0.67 0.67 -0.34 0.34 0 0 Z " fill="#B6D3B9" transform="translate(584,646)"/>
<path d="M0 0 C0.99 0.33 1.98 0.66 3 1 C2.48050781 1.56847656 1.96101562 2.13695312 1.42578125 2.72265625 C-2.71308299 7.30524346 -6.52469218 11.89564164 -10 17 C-10 13.23261628 -8.87866382 12.07931975 -6.6875 9.0625 C-6.07261719 8.20785156 -5.45773437 7.35320313 -4.82421875 6.47265625 C-3.22653469 4.3070588 -1.62027491 2.14873381 0 0 Z " fill="#BBD5BE" transform="translate(548,681)"/>
<path d="M0 0 C1 4 1 4 1 8 C-0.32 8.99 -1.64 9.98 -3 11 C-2.01 7.37 -1.02 3.74 0 0 Z " fill="#B9D8BC" transform="translate(322,395)"/>
<path d="M0 0 C0.33 0.66 0.66 1.32 1 2 C-1.31 4.64 -3.62 7.28 -6 10 C-6.66 9.67 -7.32 9.34 -8 9 C-5.36 6.03 -2.72 3.06 0 0 Z " fill="#B8D5BB" transform="translate(501,170)"/>
<path d="M0 0 C0.66 0 1.32 0 2 0 C0.55746343 3.36591866 -1.33264727 5.51047079 -4 8 C-3.40312566 4.65750371 -2.26396123 2.53563658 0 0 Z " fill="#B6D3BA" transform="translate(383,275)"/>
</svg>
